<svg width="25" height="24" viewBox="0 0 25 24" fill="none" xmlns="http://www.w3.org/2000/svg">
<path d="M22.4292 6.76001L19.0592 20.29C18.8192 21.3 17.9192 22 16.8792 22H3.73915C2.22915 22 1.14917 20.5199 1.59917 19.0699L5.80916 5.55005C6.09916 4.61005 6.96917 3.95996 7.94917 3.95996H20.2492C21.1992 3.95996 21.9892 4.53997 22.3192 5.33997C22.5092 5.76997 22.5492 6.26001 22.4292 6.76001Z" stroke="#92959C" stroke-width="1.5" stroke-miterlimit="10"/>
<path d="M16.5 22H21.28C22.57 22 23.58 20.91 23.49 19.62L22.5 6" stroke="#92959C" stroke-width="1.5" stroke-miterlimit="10" stroke-linecap="round" stroke-linejoin="round"/>
<path d="M10.1797 6.38L11.2197 2.06006" stroke="#92959C" stroke-width="1.5" stroke-miterlimit="10" stroke-linecap="round" stroke-linejoin="round"/>
<path d="M16.8809 6.38977L17.8209 2.0498" stroke="#92959C" stroke-width="1.5" stroke-miterlimit="10" stroke-linecap="round" stroke-linejoin="round"/>
<path d="M8.19922 12H16.1992" stroke="#92959C" stroke-width="1.5" stroke-miterlimit="10" stroke-linecap="round" stroke-linejoin="round"/>
<path d="M7.19922 16H15.1992" stroke="#92959C" stroke-width="1.5" stroke-miterlimit="10" stroke-linecap="round" stroke-linejoin="round"/>
</svg>
