<svg width="25" height="24" viewBox="0 0 25 24" fill="none" xmlns="http://www.w3.org/2000/svg">
<path d="M20.4707 10H4.4707V18C4.4707 21 5.4707 22 8.4707 22H16.4707C19.4707 22 20.4707 21 20.4707 18V10Z" stroke="#92959C" stroke-width="1.5" stroke-miterlimit="10" stroke-linecap="round" stroke-linejoin="round"/>
<path d="M22 7V8C22 9.1 21.47 10 20 10H5C3.47 10 3 9.1 3 8V7C3 5.9 3.47 5 5 5H20C21.47 5 22 5.9 22 7Z" stroke="#92959C" stroke-width="1.5" stroke-miterlimit="10" stroke-linecap="round" stroke-linejoin="round"/>
<path d="M12.1408 4.99994H6.62076C6.28076 4.62994 6.29076 4.05994 6.65076 3.69994L8.07076 2.27994C8.44076 1.90994 9.05076 1.90994 9.42076 2.27994L12.1408 4.99994Z" stroke="#92959C" stroke-width="1.5" stroke-miterlimit="10" stroke-linecap="round" stroke-linejoin="round"/>
<path d="M18.3696 4.99994H12.8496L15.5696 2.27994C15.9396 1.90994 16.5496 1.90994 16.9196 2.27994L18.3396 3.69994C18.6996 4.05994 18.7096 4.62994 18.3696 4.99994Z" stroke="#92959C" stroke-width="1.5" stroke-miterlimit="10" stroke-linecap="round" stroke-linejoin="round"/>
<path d="M9.43945 10V15.14C9.43945 15.94 10.3195 16.41 10.9895 15.98L11.9295 15.36C12.2695 15.14 12.6995 15.14 13.0295 15.36L13.9195 15.96C14.5795 16.4 15.4695 15.93 15.4695 15.13V10H9.43945Z" stroke="#92959C" stroke-width="1.5" stroke-miterlimit="10" stroke-linecap="round" stroke-linejoin="round"/>
</svg>
