<svg width="22" height="20" viewBox="0 0 22 20" fill="none" xmlns="http://www.w3.org/2000/svg">
<path d="M16.98 8.54999C16.56 8.95999 16.32 9.54999 16.38 10.18C16.47 11.26 17.46 12.05 18.54 12.05H20.5V13.5C20.5 16.5 18.5 18.5 15.5 18.5H6.5C3.5 18.5 1.5 16.5 1.5 13.5V6.5C1.5 3.78 3.14 1.88 5.69 1.56C5.95 1.52 6.22 1.5 6.5 1.5H15.5C15.76 1.5 16.01 1.50999 16.25 1.54999C18.83 1.84999 20.5 3.76 20.5 6.5V7.95001H18.42C17.86 7.95001 17.35 8.16999 16.98 8.54999Z" stroke="#92959C" stroke-width="1.5" stroke-linecap="round" stroke-linejoin="round"/>
</svg>
